<?xml version="1.0" encoding="utf-8"?>
<!-- Generator: Adobe Illustrator 23.0.1, SVG Export Plug-In . SVG Version: 6.00 Build 0)  -->
<svg version="1.1" id="Layer_1" xmlns="http://www.w3.org/2000/svg" xmlns:xlink="http://www.w3.org/1999/xlink" x="0px" y="0px"
	 viewBox="0 0 600 300" style="enable-background:new 0 0 600 300;" xml:space="preserve">
<style type="text/css">
	.st0{fill:none;stroke:#000000;stroke-miterlimit:10;}
	.st1{fill:none;stroke:#FFFFFF;stroke-width:2;stroke-miterlimit:10;}
	.st2{fill:none;stroke:#F8F9FB;stroke-width:2;stroke-miterlimit:10;}
	.st3{fill:none;stroke:#F8F9FB;stroke-width:2;stroke-miterlimit:10;stroke-dasharray:4,3;}
	.st4{fill:#F9F9F9;}
	.st5{clip-path:url(#SVGID_2_);}
	.st6{clip-path:url(#SVGID_4_);fill:#D8D8D8;}
	.st7{clip-path:url(#SVGID_6_);}
	.st8{clip-path:url(#SVGID_8_);fill:#D8D8D8;}
	.st9{fill:#FFFFFF;}
	.st10{fill:none;}
	.st11{fill:#F8F9FB;}
	.st12{fill:#F8F9FB;stroke:#F8F9FB;stroke-miterlimit:10;}
	.st13{fill:none;stroke:#F8F9FB;stroke-width:2;stroke-linecap:round;stroke-miterlimit:10;}
</style>
<rect class="st0" width="45" height="45"/>
<rect y="45" class="st0" width="90" height="45"/>
<rect x="45" class="st0" width="45" height="45"/>
<rect x="90" class="st0" width="45" height="45"/>
<rect x="90" y="45.2" class="st0" width="45" height="45"/>
<rect x="135" y="45.2" class="st0" width="45" height="45"/>
<rect x="180" y="45.2" class="st0" width="45" height="45"/>
<rect x="135" class="st0" width="45" height="45"/>
<rect x="180" class="st0" width="45" height="45"/>
<path class="st1" d="M388.6-166.4v7.3 M383.4-166.4v7.3 M382.4-171.4h7.2v-4.6h-7.2V-171.4z M397-171.4h-22 M378.4-154h15.1v-17.4
	h-15.1V-154z"/>
<path class="st2" d="M25.1,21.1v7.3 M19.9,21.1v7.3 M18.9,16.1h7.2v-4.6h-7.2C18.9,11.5,18.9,16.1,18.9,16.1z M33.5,16.1h-22
	 M14.9,33.5H30V16.1H14.9V33.5z"/>
<path class="st2" d="M72.8,11.1L72.8,11.1c-1.4,0-2.5,1.1-2.5,2.5v4.2l-8.8,0.9c-1.1,0.1-1.9,1-1.9,2.1v8.3l2.7,2v2.8h10.3v-2.8
	l2.7-2v-1.4v-5.6v-2.5v-6C75.4,12.2,74.2,11.1,72.8,11.1z"/>
<path class="st3" d="M69.5,27.8c6.7,0,12,0.6,12-6.1s-5.2-15.5-17.1-9.6s-12.7,17.8-8.7,21.8S62.8,27.8,69.5,27.8z"/>
<path class="st4" d="M110.5,34.5c-6.6,0-12-5.4-12-12s5.4-12,12-12c6.4,0,11.7,5,12,11.4l2.2-3.4l1.7,1.1l-4,6.3l-6.3-4l1.1-1.7
	l3.5,2.2c-0.1-5.4-4.5-9.9-10-9.9s-10,4.5-10,10s4.5,10,10,10c1.7,0,3.3-0.4,4.8-1.3l1,1.7C114.5,34,112.5,34.5,110.5,34.5z
	 M120.7,22.5l1,0.6l0.4-0.6H120.7z"/>
<g>
	<g>
		<g>
			<defs>
				<line id="SVGID_1_" x1="304" y1="439.5" x2="323.5" y2="420"/>
			</defs>
			<clipPath id="SVGID_2_">
				<use xlink:href="#SVGID_1_"  style="overflow:visible;"/>
			</clipPath>
			<g class="st5">
				<g>
					<g>
						<defs>
							<rect id="SVGID_3_" x="-31" y="-338" width="375" height="812"/>
						</defs>
						<clipPath id="SVGID_4_">
							<use xlink:href="#SVGID_3_"  style="overflow:visible;"/>
						</clipPath>
						<rect x="299" y="415" class="st6" width="29.5" height="29.5"/>
					</g>
				</g>
			</g>
		</g>
	</g>
</g>
<g>
	<g>
		<g>
			<defs>
				<line id="SVGID_5_" x1="304" y1="420" x2="323.5" y2="439.5"/>
			</defs>
			<clipPath id="SVGID_6_">
				<use xlink:href="#SVGID_5_"  style="overflow:visible;"/>
			</clipPath>
			<g class="st7">
				<g>
					<g>
						<defs>
							<rect id="SVGID_7_" x="-31" y="-338" width="375" height="812"/>
						</defs>
						<clipPath id="SVGID_8_">
							<use xlink:href="#SVGID_7_"  style="overflow:visible;"/>
						</clipPath>
						<rect x="299" y="415" class="st8" width="29.5" height="29.5"/>
					</g>
				</g>
			</g>
		</g>
	</g>
</g>
<g>
	<rect x="201.5" y="8.8" transform="matrix(0.7071 -0.7071 0.7071 0.7071 43.3997 149.7785)" class="st4" width="2" height="27.4"/>
	
		<rect x="188.8" y="21.5" transform="matrix(0.7071 -0.7071 0.7071 0.7071 43.3997 149.7785)" class="st4" width="27.4" height="2"/>
</g>
<rect x="225" class="st0" width="45" height="45"/>
<path class="st4" d="M169.5,35.6h-24V17.1h3.7v2h-1.7v14.5h20V19.1H166v-2h3.5V35.6z M157.5,29.8l-5.5-5.5l1.4-1.4l3.1,3.1V10.4h2
	V26l3.1-3.1l1.4,1.4L157.5,29.8z"/>
<g>
	<path class="st9" d="M53.3,87.5c-1.8,0-3.7,0-5.5,0c0-0.1,0-0.2,0-0.3c0-5.3,0-10.6,0-15.9c0-0.1,0-0.2,0-0.4
		c0-0.4-0.4-0.8-0.8-0.8c-0.5,0-0.9,0.3-1,0.7c0,0.1,0,0.3,0,0.4c0,5.3,0,10.6,0,16c0,0.1,0,0.2,0,0.3c-0.2,0-5.2,0.1-5.5,0
		c0-0.1,0-0.2,0-0.3c0-5.3,0-10.6,0-15.9c0-0.1,0-0.3,0-0.4c-0.1-0.4-0.4-0.7-0.8-0.7c-0.4-0.1-0.8,0.1-1,0.5
		c-0.1,0.1-0.1,0.2-0.1,0.4c0,0.1,0,0.2,0,0.3c0,5.3,0,10.6,0,15.9c0,0.1,0,0.2,0,0.3c-1.8,0-3.7,0-5.5,0c0-0.1,0-0.2,0-0.3
		c0-4.2,0-8.4,0-12.5c0-1.7,0-3.3,0-5c0-0.5,0.1-0.9,0.4-1.2c0.3-0.4,0.7-0.6,1.2-0.6c0.1,0,0.2,0,0.4,0c5.4,0,10.8,0,16.2,0
		c0.4,0,0.8,0,1.2,0.3c0.5,0.3,0.7,0.8,0.8,1.3c0,0.1,0,0.2,0,0.3C53.3,75.8,53.3,81.6,53.3,87.5C53.3,87.3,53.3,87.4,53.3,87.5z"/>
	<path class="st9" d="M51.4,48.3c1.2,0,2.3,0.4,3.4,0.8c0.7,0.3,1.4,0.6,2.1,1c0.6,0.3,1.2,0.7,1.8,1.1c1.3,0.8,2.5,1.8,3.6,2.7
		c1,0.9,2.1,1.8,3.1,2.6c1.4,1.1,3,2,4.7,2.7c0.8,0.3,1.7,0.5,2.6,0.5c1,0,1.9-0.3,2.8-0.9c1-0.7,1.7-1.6,2.3-2.6
		c0.4-0.7,0.7-1.5,1.1-2.3c0.4-1,0.8-1.9,1.3-2.8c0.4-0.7,0.8-1.3,1.3-1.9c0.8-0.9,1.8-1.6,2.9-2.2c0.3-0.2,0.7-0.3,1.1-0.2
		c0.5,0,0.8,0.3,1,0.8c0.1,0.3,0.1,0.6,0,1s-0.3,0.8-0.6,1.2c-0.2,0.2-0.4,0.4-0.7,0.5c-0.5,0.3-1.1,0.6-1.6,0.9
		c-0.5,0.3-1,0.6-1.5,0.9c-0.9,0.6-1.5,1.4-2,2.3c-0.6,1.1-1.1,2.3-1.6,3.5c-0.1,0.2-0.2,0.4-0.3,0.6c-0.1,0.3-0.4,0.6-0.6,0.9
		c-0.5,0.7-1.2,1.2-1.9,1.7c-0.1,0-0.1,0.1-0.2,0.1c-0.1,0.1-0.1,0.2-0.1,0.3c0.1,0.1,0.1,0.2,0.2,0.3c0.3,0.3,0.5,0.7,0.7,1.1
		c0.4,0.8,0.6,1.7,0.7,2.6c0.2,1.3,0.3,2.7,0.3,4c0,0.5,0.1,1,0.3,1.4c0.1,0.2,0.2,0.3,0.3,0.5c0.2,0.3,0.5,0.6,0.8,0.8
		c0.1,0.1,0.2,0.2,0.3,0.2c0.4,0.3,0.5,0.6,0.6,1.1c0,0.3,0,0.5,0.1,0.8c0.1,0.4,0.3,0.8,0.5,1.2c0.1,0.2,0.2,0.3,0.3,0.5
		c0.1,0.3,0.2,0.5,0,0.8c-0.2,0.4-0.2,0.8-0.2,1.2c0,0.3,0,0.6,0,0.9c0,0.4-0.1,0.5-0.5,0.5c-0.7,0-1.2-0.3-1.6-0.8
		c-0.3-0.4-0.5-0.8-0.6-1.2c-0.2-0.7-0.2-1.5-0.2-2.2c0-0.2,0-0.4,0-0.6s-0.1-0.4-0.2-0.5c-0.5-0.4-1-0.8-1.5-1.1
		c-0.2-0.1-0.3-0.3-0.5-0.5c-0.8-0.8-1.6-1.7-2.2-2.6S71.8,68,71.4,67c-0.2-0.6-0.5-1.3-0.9-1.8c-0.7-1.1-1.6-1.9-2.9-2.3
		c-0.4-0.2-0.9-0.2-1.4-0.2c-0.8,0-1.5-0.1-2.3-0.1c-1.5-0.2-2.9-0.5-4.2-1.3c-1-0.5-1.8-1.2-2.6-2c-0.4-0.4-0.8-0.8-1.3-1.2
		L55.7,58c-0.3-0.2-0.4-0.2-0.7,0c-0.8,0.9-1.9,1.1-3,1c-0.7-0.1-1.3-0.2-1.9-0.5c-0.8-0.3-1.5-0.7-2.2-1c-0.2-0.1-0.4-0.2-0.6-0.2
		c-0.3-0.1-0.4,0-0.5,0.3c0,0.1-0.1,0.3-0.1,0.4c-0.1,0.4-0.3,0.6-0.7,0.6c-0.7,0-1.4-0.5-1.6-1.2c-0.1-0.3,0-0.6,0.1-0.9
		c0.2-0.4,0.4-0.6,0.7-0.8c0.5-0.3,1-0.4,1.5-0.5c0.8-0.1,1.6-0.1,2.4,0.1c0.6,0.2,0.8-0.2,0.8-0.6c0-0.1,0-0.2,0-0.3
		c0-0.3-0.2-0.5-0.4-0.6c-0.5-0.2-0.9-0.3-1.4-0.2c-0.1,0-0.2,0.1-0.3,0.1c-0.4,0.1-0.8,0-1.1-0.3c-0.1-0.1-0.2-0.2-0.3-0.3
		c-0.2-0.2-0.4-0.3-0.6-0.5c-0.1-0.1-0.3-0.2-0.5-0.3S45,52,45,51.7c0-0.2,0.1-0.4,0.2-0.6c0.1-0.1,0.3-0.2,0.4-0.3
		c0.2-0.2,0.4-0.4,0.4-0.7c0-0.1,0-0.1,0-0.2c0-0.3,0.2-0.5,0.5-0.7c0.1-0.1,0.2-0.1,0.3-0.2c0.3-0.2,0.6-0.4,0.8-0.7
		c0.1-0.3,0.3-0.5,0.4-0.8c0.1-0.1,0.1-0.2,0.2-0.3c0.1-0.1,0.2-0.1,0.3,0s0.2,0.2,0.3,0.4c0.1,0.1,0.2,0.2,0.3,0.4
		c0.2,0.2,0.3,0.2,0.4,0c0.2-0.2,0.3-0.3,0.4-0.5c0.1-0.1,0.2-0.2,0.3-0.2c0.1-0.1,0.2-0.1,0.3,0.1c0.1,0.1,0.2,0.3,0.3,0.4
		C51,47.8,51.2,48,51.4,48.3z"/>
	<path class="st9" d="M60.7,87.5c-1.8,0-3.6,0-5.5,0c0-0.1,0-0.2,0-0.3c0-5.6,0-11.2,0-16.9c0-0.3,0-0.6,0-0.8
		c0-0.7,0.4-1.3,1.1-1.6c0.3-0.1,0.5-0.1,0.8-0.1c0.7,0,1.3,0,2,0c2.3,0,4.6,0,7,0c0.2,0,0.4,0,0.6,0.1c0.8,0.2,1.3,0.9,1.4,1.6
		c0,0.2,0,0.5,0,0.7c0,5.7,0,11.4,0,17c0,0.1,0,0.2,0,0.3c-1.8,0-3.7,0-5.5,0c0-0.5,0-1.1,0-1.6c0-0.6,0-1.1,0-1.7
		c0-0.5,0-1.1,0-1.6c-0.6,0-1.2,0-1.8,0c0,0.3,0,0.5,0,0.8s0,0.5,0,0.8s0,0.6,0,0.8s0,0.6,0,0.8c0,0.3,0,0.5,0,0.8
		C60.7,86.9,60.7,87.2,60.7,87.5z M60.7,80.1c0.6,0,1.2,0,1.8,0c0-0.1,0-0.2,0-0.3c0-2.9,0-5.8,0-8.6c0-0.1,0-0.2,0-0.3
		c-0.1-0.6-0.6-0.9-1.2-0.8c-0.4,0.1-0.6,0.5-0.6,0.9c0,3,0,5.9,0,8.9C60.7,79.9,60.7,80,60.7,80.1z"/>
	<path class="st9" d="M25.8,67.7c1.8,0,3.6,0,5.5,0c0,0.1,0,0.2,0,0.2c0,5.9,0,11.9,0,17.8c0,0.2,0,0.4-0.1,0.6
		c-0.2,0.6-0.8,1.1-1.5,1.1c-0.1,0-0.1,0-0.2,0c-3.1,0-6.2,0-9.4,0c-0.4,0-0.7-0.1-1-0.3c-0.4-0.3-0.6-0.6-0.7-1.1
		c0-0.1,0-0.3,0-0.4c0-5.9,0-11.8,0-17.7c0-0.1,0-0.2,0-0.2c1.8,0,3.7,0,5.5,0c0,0.1,0,0.2,0,0.3c0,5.3,0,10.6,0,15.9
		c0,0.1,0,0.2,0,0.3c0,0.2,0.1,0.4,0.2,0.6c0.3,0.3,0.6,0.4,1,0.3s0.6-0.5,0.7-0.9c0-0.1,0-0.2,0-0.3c0-5.3,0-10.6,0-15.9
		C25.8,68,25.8,67.9,25.8,67.7z"/>
	<path class="st9" d="M9.2,82.5c0,1.7,0,3.3,0,5c-1.8,0-3.6,0-5.5,0l0,0l0,0c0-6.5,0-13,0-19.5c0,0,0-0.1,0-0.2c0.1,0,0.2,0,0.3,0
		c2.9,0,5.9,0,8.8,0c0.6,0,1.2,0,1.9,0c0.5,0,0.9,0.1,1.2,0.4c0.4,0.4,0.6,0.8,0.6,1.3c0,0.6,0,1.2,0,1.8c0,2.9,0,5.8,0,8.7
		c0,0.3,0,0.5,0,0.8c0,0.8-0.7,1.7-1.7,1.7c-0.1,0-0.2,0-0.3,0c-1.7,0-3.4,0-5.1,0C9.4,82.5,9.4,82.5,9.2,82.5z M9.3,80.1
		c0.4,0,0.7,0,1.1,0c0.3,0,0.5-0.2,0.6-0.4c0.1-0.2,0.1-0.4,0.1-0.6c0-2.6,0-5.2,0-7.8c0-0.1,0-0.1,0-0.2c0-0.5-0.4-0.8-0.9-0.9
		c-0.3,0-0.5,0-0.8,0H9.3C9.3,73.4,9.3,76.7,9.3,80.1z"/>
	<path class="st9" d="M72.2,82.7c1.3,0,2.5,1,2.5,2.5c0,1.4-1.2,2.4-2.5,2.4s-2.4-1-2.4-2.4C69.8,83.7,71,82.7,72.2,82.7z
		 M72.2,87.2c1.2,0,2-1,2-2.1c0-1-0.8-2.1-2-2.1c-1.3,0-2.1,1.1-2.1,2.1C70.1,86.2,71,87.2,72.2,87.2z"/>
	<path class="st9" d="M71.4,83.8c0.3,0,0.5,0,0.8,0c0.1,0,0.2,0,0.4,0.1c0.3,0.1,0.5,0.3,0.6,0.7c0,0.3-0.1,0.6-0.5,0.8
		c0,0-0.1,0-0.1,0.1c0.3,0.4,0.6,0.7,0.9,1.1c-0.1,0-0.5,0.1-0.6,0l-0.1-0.1c-0.2-0.2-0.4-0.5-0.6-0.7c0-0.1-0.1-0.1-0.2-0.2
		c0,0.4,0,0.7,0,1.1c-0.1,0-0.2,0-0.3,0c-0.1,0-0.2,0-0.2,0C71.3,86.4,71.3,84,71.4,83.8z M71.9,84.2c0,0.3,0,0.5,0,0.8
		c0.2,0,0.3,0,0.4-0.1c0.2-0.1,0.2-0.2,0.2-0.3c0-0.2-0.1-0.3-0.2-0.3C72.2,84.3,72,84.2,71.9,84.2z"/>
</g>
<rect x="-14" y="-297" class="st10" width="375" height="812"/>
<polyline class="st2" points="237.8,21.1 245.2,28.5 257.2,16.5 "/>
<rect x="270" class="st0" width="45" height="45"/>
<g>
	<g>
		<g>
			<circle class="st11" cx="292.5" cy="27.3" r="1"/>
			<path class="st11" d="M292.5,12.5c-5.5,0-10,4.5-10,10s4.5,10,10,10s10-4.5,10-10S298,12.5,292.5,12.5z M292.5,30.9
				c-4.7,0-8.4-3.8-8.4-8.4c0-4.7,3.8-8.4,8.4-8.4c4.7,0,8.4,3.8,8.4,8.4C300.9,27.2,297.2,30.9,292.5,30.9z"/>
			<path class="st11" d="M292.5,17.5c-1.7,0-3.1,1.4-3.1,3.1c0,0.4,0.3,0.8,0.8,0.8s0.8-0.3,0.8-0.8c0-0.9,0.7-1.6,1.6-1.6
				s1.6,0.7,1.6,1.6s-0.7,1.6-1.6,1.6c-0.4,0-0.8,0.3-0.8,0.8v2c0,0.4,0.3,0.8,0.8,0.8s0.8-0.3,0.8-0.8v-1.3c1.3-0.3,2.3-1.6,2.3-3
				C295.6,18.9,294.2,17.5,292.5,17.5z"/>
		</g>
	</g>
</g>
<rect x="315" class="st0" width="45" height="45"/>
<rect x="360" class="st0" width="45" height="45"/>
<g>
	<g>
		<path class="st11" d="M318.3,14.3c-0.1-0.1-0.1-0.2-0.1-0.3V3.8l0.3-0.3h10.3l0.3,0.3V5l-0.3,0.3h-7.7l10.4,10.4l0.1-0.1l0.2,0.3
			c0.1,0.2,0.1,0.4,0,0.5L331,17c-0.1,0.1-0.4,0.2-0.6,0L319.9,6.4v7.8l-0.3,0.2h-1.1L318.3,14.3L318.3,14.3z"/>
	</g>
</g>
<g>
	<g>
		<path class="st11" d="M401.8,31.3c0.1,0.1,0.1,0.2,0.1,0.3v10.2l-0.3,0.3h-10.3l-0.3-0.3v-1.2l0.3-0.3h7.7L388.6,30l-0.1,0.1
			l-0.2-0.3c-0.1-0.2-0.1-0.4,0-0.5l0.6-0.6c0.1-0.1,0.4-0.2,0.6,0l10.6,10.6v-7.8l0.3-0.2h1.1L401.8,31.3L401.8,31.3z"/>
	</g>
</g>
<rect x="405" class="st0" width="45" height="45"/>
<rect x="450" class="st0" width="45" height="45"/>
<rect x="495" class="st0" width="45" height="45"/>
<g>
	<g>
		<path class="st11" d="M436,3.7c0.1-0.1,0.2-0.1,0.3-0.1h10.2l0.3,0.3v10.3l-0.3,0.3h-1.2l-0.3-0.3V6.5l-10.4,10.4l0.1,0.1
			l-0.3,0.2c-0.2,0.1-0.4,0.1-0.5,0l-0.6-0.6c-0.1-0.1-0.2-0.4,0-0.6l10.6-10.6h-7.8L435.9,5V3.9L436,3.7L436,3.7z"/>
	</g>
</g>
<g>
	<g>
		<path class="st11" d="M463.9,41.9c-0.1,0.1-0.2,0.1-0.3,0.1h-10.2l-0.3-0.3V31.4l0.3-0.3h1.2l0.3,0.3v7.7l10.3-10.4l-0.1-0.1
			l0.3-0.2c0.2-0.1,0.4-0.1,0.5,0l0.6,0.6c0.1,0.1,0.2,0.4,0,0.6L456,40.4h7.8l0.2,0.3v1.1L463.9,41.9L463.9,41.9z"/>
	</g>
</g>
<g>
	<polygon class="st4" points="104.1,65.6 103,65 98.5,67.7 112.5,76.1 126.5,67.7 122,65 121,65.7 124.5,67.7 112.5,74.9 
		100.5,67.7 	"/>
	<polygon class="st4" points="104.1,71.1 103,70.5 98.5,73.2 112.5,81.5 126.5,73.2 122,70.5 121,71.1 124.5,73.2 112.5,80.3 
		100.5,73.2 	"/>
	<polygon class="st4" points="98.5,62.3 112.5,70.7 126.5,62.3 112.5,54 	"/>
</g>
<g>
	<g>
		<path class="st4" d="M157.5,70.7l-14-8.4l14-8.4l14,8.4L157.5,70.7z M145.5,62.3l12,7.1l12-7.1l-12-7.1L145.5,62.3z"/>
	</g>
	<polygon class="st4" points="149.1,65.6 148,65 143.5,67.7 157.5,76.1 171.5,67.7 167,65 166,65.7 169.5,67.7 157.5,74.9 
		145.5,67.7 	"/>
	<polygon class="st4" points="149.1,71.1 148,70.5 143.5,73.2 157.5,81.5 171.5,73.2 167,70.5 166,71.1 169.5,73.2 157.5,80.3 
		145.5,73.2 	"/>
	<polygon class="st4" points="167,70.5 171.5,73.2 157.5,81.5 143.5,73.2 148,70.5 157.5,76.1 	"/>
</g>
<polygon class="st4" points="215,67.7 207.9,74.8 206.1,73 210.1,69 190,69 190,66.5 210.1,66.5 206.1,62.5 207.9,60.7 "/>
<rect x="225" y="45.2" class="st0" width="45" height="45"/>
<polygon class="st4" points="235,67.7 242.1,60.7 243.9,62.5 239.9,66.5 260,66.5 260,69 239.9,69 243.9,73 242.1,74.8 "/>
<rect x="270" y="45.2" class="st0" width="45" height="45"/>
<rect x="315" y="45" class="st0" width="36" height="36"/>
<polygon class="st4" points="292.5,80.2 285.4,73.2 287.2,71.3 291.2,75.3 291.2,55.2 293.8,55.2 293.8,75.3 297.8,71.3 299.6,73.2 
	"/>
<g>
	<path class="st11" d="M528.6,4.6c-1.5-1.5-3.9-1.5-5.4,0L508,19.8c-0.1,0.1-0.2,0.2-0.2,0.4l-2,7.2c-0.1,0.3,0,0.6,0.2,0.8
		c0.2,0.2,0.5,0.3,0.8,0.2l7.2-2c0.1,0,0.3-0.1,0.4-0.2L529.6,11c1.5-1.5,1.5-3.9,0-5.4L528.6,4.6z M509.8,20.4L522.2,8l4,4
		l-12.4,12.4L509.8,20.4z M509,22l3.2,3.2l-4.4,1.2L509,22z M528.4,9.8l-0.9,0.9l-4-4l0.9-0.9c0.8-0.8,2.2-0.8,3,0l1,1
		C529.2,7.7,529.2,9,528.4,9.8z"/>
	<path class="st12" d="M531.9,41.5L531.9,41.5c-0.3,0-0.6-0.3-0.6-0.6c0-1.7-0.5-3-1.7-3.9c-2.8-2.3-9.3-2.5-18.7-0.4
		c-4.2,0.9-6.8,0.6-7.8-0.9c-1.5-2.2,0.9-5.9,1-6.1c0.2-0.3,0.6-0.3,0.8-0.2c0.3,0.2,0.3,0.6,0.2,0.8c-0.6,0.9-1.9,3.4-1,4.7
		c0.5,0.8,2.1,1.5,6.6,0.4c9.9-2.2,16.6-2,19.7,0.6c1.4,1.2,2.1,2.8,2.1,4.9C532.5,41.2,532.2,41.5,531.9,41.5z"/>
</g>
<rect x="540" class="st0" width="45" height="45"/>
<g>
	<path class="st11" d="M573.6,4.6c-1.5-1.5-3.9-1.5-5.4,0L553,19.8c-0.1,0.1-0.2,0.2-0.2,0.4l-2,7.2c-0.1,0.3,0,0.6,0.2,0.8
		c0.2,0.2,0.5,0.3,0.8,0.2l7.2-2c0.1,0,0.3-0.1,0.4-0.2L574.6,11c1.5-1.5,1.5-3.9,0-5.4L573.6,4.6z M554.8,20.4L567.2,8l4,4
		l-12.4,12.4L554.8,20.4z M554,22l3.2,3.2l-4.4,1.2L554,22z M573.4,9.8l-0.9,0.9l-4-4l0.9-0.9c0.8-0.8,2.2-0.8,3,0l1,1
		C574.2,7.7,574.2,9,573.4,9.8z"/>
</g>
<g>
	<g>
		<path class="st11" d="M333.7,65.1l6-6l0.4,0.1L341,60l0.2,0.2l0,0c0,0.2-0.1,0.2-0.2,0.3l-7.9,7.9l-0.5,0l-7.9-7.9V60l0.9-0.9
			l0.5,0l5.9,5.9l0.9,0.9L333.7,65.1z"/>
	</g>
</g>
<line class="st13" x1="551.7" y1="4.4" x2="574.8" y2="27.5"/>
</svg>
